<!DOCTYPE svg PUBLIC "-//W3C//DTD SVG 20010904//EN" "http://www.w3.org/TR/2001/REC-SVG-20010904/DTD/svg10.dtd">
<svg version="1.0" xmlns="http://www.w3.org/2000/svg" width="555px" height="454px" viewBox="0 0 5550 4540" preserveAspectRatio="xMidYMid meet">
<g id="layer101" fill="#ffffff" stroke="none">
 <path d="M3100 4077 c-25 -14 -175 -109 -335 -211 -217 -140 -290 -192 -290 -207 0 -15 29 -33 135 -82 l135 -63 3 -400 2 -399 770 -244 770 -244 0 -584 0 -583 28 0 c34 0 592 351 665 418 l27 26 0 608 0 607 -127 41 c-71 22 -411 129 -758 238 l-630 198 -5 409 -5 408 -102 38 c-60 22 -131 40 -170 44 -60 6 -73 4 -113 -18z"/>
 <path d="M1875 3227 c-88 -47 -615 -388 -615 -398 0 -4 5 -19 12 -33 12 -27 50 -45 205 -95 l83 -26 0 -835 0 -835 283 -94 c155 -52 319 -107 365 -123 l82 -30 0 -169 0 -169 27 0 c19 0 125 65 345 211 175 117 324 219 333 229 13 14 15 46 13 205 l-3 189 -260 92 c-324 116 -384 139 -415 164 l-25 19 -5 813 -5 813 -55 27 c-56 28 -179 62 -260 72 -38 4 -55 0 -105 -27z"/>
 <path d="M2770 2070 l0 -179 218 -70 c613 -196 881 -281 891 -281 8 0 11 55 9 188 l-3 187 -545 167 c-300 91 -551 167 -557 167 -10 1 -13 -41 -13 -179z"/>
 <path d="M998 1758 c-141 -73 -400 -253 -485 -339 -56 -55 -55 -71 4 -92 117 -40 524 -156 571 -163 l52 -7 -2 319 -3 319 -26 3 c-16 2 -59 -14 -111 -40z"/>
 </g>

</svg>